HIERARCHY
ROOT Hips
{
  OFFSET -187.679 86.5976 -156.378
  CHANNELS 6 Xposition Yposition Zposition Zrotation Xrotation Yrotation
  JOINT LeftUpLeg
  {
    OFFSET 8.64259 1.95398 -2.38835
    CHANNELS 3 Zrotation Xrotation Yrotation
    JOINT LeftLeg
    {
      OFFSET 43.7702 0 0
      CHANNELS 3 Zrotation Xrotation Yrotation
      JOINT LeftFoot
      {
        OFFSET 40.6238 0 0
        CHANNELS 3 Zrotation Xrotation Yrotation
        JOINT LeftToeBase
        {
          OFFSET 12.7242 0 0
          CHANNELS 3 Zrotation Xrotation Yrotation
          End Site
          {
            OFFSET 0 0 0
          }
        }
      }
    }
  }
  JOINT RightUpLeg
  {
    OFFSET -8.2249 1.95398 -2.59336
    CHANNELS 3 Zrotation Xrotation Yrotation
    JOINT RightLeg
    {
      OFFSET 43.5653 0 0
      CHANNELS 3 Zrotation Xrotation Yrotation
      JOINT RightFoot
      {
        OFFSET 40.6238 0 0
        CHANNELS 3 Zrotation Xrotation Yrotation
        JOINT RightToeBase
        {
          OFFSET 12.7242 0 0
          CHANNELS 3 Zrotation Xrotation Yrotation
          End Site
          {
            OFFSET 0 0 0
          }
        }
      }
    }
  }
  JOINT Spine
  {
    OFFSET 0.165834 0.87714 6.61349
    CHANNELS 3 Zrotation Xrotation Yrotation
    JOINT Spine1
    {
      OFFSET 7.38963 1.71661e-005 0
      CHANNELS 3 Zrotation Xrotation Yrotation
      JOINT Spine2
      {
        OFFSET 11.9445 1.14441e-005 0
        CHANNELS 3 Zrotation Xrotation Yrotation
        JOINT Spine3
        {
          OFFSET 14.7254 4.19617e-005 0
          CHANNELS 3 Zrotation Xrotation Yrotation
          JOINT Spine4
          {
            OFFSET 10.9679 0 0
            CHANNELS 3 Zrotation Xrotation Yrotation
            JOINT RightShoulder
            {
              OFFSET 2.46616 -1.6653 3.69651
              CHANNELS 3 Zrotation Xrotation Yrotation
              JOINT RightArm
              {
                OFFSET 13.0012 0 0
                CHANNELS 3 Zrotation Xrotation Yrotation
                JOINT RightForeArm
                {
                  OFFSET 28.7848 1.52588e-005 0
                  CHANNELS 3 Zrotation Xrotation Yrotation
                  JOINT RightHand
                  {
                    OFFSET 26.5688 1.52588e-005 0
                    CHANNELS 3 Zrotation Xrotation Yrotation
                    End Site
                    {
                      OFFSET 0 0 0
                    }
                  }
                }
              }
            }
            JOINT LeftShoulder
            {
              OFFSET 2.38034 -1.29275 -3.7523
              CHANNELS 3 Zrotation Xrotation Yrotation
              JOINT LeftArm
              {
                OFFSET 16.3182 6.10352e-005 0
                CHANNELS 3 Zrotation Xrotation Yrotation
                JOINT LeftForeArm
                {
                  OFFSET 27.0901 0 0
                  CHANNELS 3 Zrotation Xrotation Yrotation
                  JOINT LeftHand
                  {
                    OFFSET 24.5451 1.52588e-005 0
                    CHANNELS 3 Zrotation Xrotation Yrotation
                    End Site
                    {
                      OFFSET 0 0 0
                    }
                  }
                }
              }
            }
            JOINT Neck
            {
              OFFSET 5.0226 -0.0266342 0
              CHANNELS 3 Zrotation Xrotation Yrotation
              JOINT Head
              {
                OFFSET 6.69363 2.86102e-005 0
                CHANNELS 3 Zrotation Xrotation Yrotation
                End Site
                {
                  OFFSET 0 0 0
                }
              }
            }
          }
        }
      }
    }
  }
}
MOTION
Frames:	10
Frame Time:	0.0416667
-92.4306 87.8548 -86.1068 -114.854 43.2142 -76.8593 -173.987 26.8671 86.0645 -69.7558 26.9013 4.97826 69.9016 6.87854 7.18971 25.1465 0.356875 -4.98193 171.573 29.5593 87.0944 -100.635 8.00574 -3.76719 70.9924 -5.00204 -3.87075 18.6264 -3.64628 5.26574 -0.000802036 9.85243 -89.1913 7.16385 0.346786 1.57877 -4.50798 0.415912 1.56199 -27.0354 -0.143675 1.61 -7.0228 -0.143676 1.61 94.6299 -35.6725 -96.0416 36.7205 -7.65229 6.76538 -48.6381 -10.1392 -69.5074 -0.581487 -0.0243677 1.65532 -87.4993 -30.1363 78.3212 -3.68708 4.09779 -8.3914 47.5896 -20.1765 -100.812 -3.45856 -0.115827 -1.12032 4.32701 2.27096 -4.80626 8.41211 3.16844 0.999808 
-96.0422 87.8785 -90.0747 -112.531 44.1531 -77.3985 -171.96 27.8228 88.0289 -74.0254 29.6032 4.3538 69.1044 6.94499 9.10673 28.8838 1.93033 -6.15268 170.513 39.362 90.7593 -94.6775 11.1118 -2.22093 68.811 -4.28441 -4.33098 18.666 -4.00477 6.20391 -0.239827 10.0025 -89.3218 6.86795 -0.188856 1.34414 -4.80369 -0.129507 1.35114 -27.3341 -0.584072 1.22527 -7.32146 -0.584068 1.22528 95.1113 -32.0607 -95.8982 33.0805 -5.46398 11.1863 -49.9247 -3.85725 -76.6388 -1.7699 -0.120193 3.79179 -86.0884 -23.9276 79.3719 -0.416162 -2.11646 -17.5179 46.842 -19.8741 -102.783 -3.35026 -0.125508 0.360404 2.7061 3.83185 -2.09547 11.2662 4.1888 0.799847 
-99.3903 88.1964 -93.5157 -110.359 42.1158 -78.6086 -170.279 30.6757 89.5004 -78.0449 33.0006 4.03269 60.0407 1.70297 7.97994 36.2977 5.60155 -11.7296 166.709 44.6144 91.662 -83.5888 18.3477 1.44881 65.8326 -3.14165 -4.32345 17.3036 -3.71101 4.71057 -0.694347 10.3135 -89.42 6.25119 -1.14199 1.17815 -5.41987 -1.08904 1.22725 -27.9566 -1.44327 0.780455 -7.94392 -1.44326 0.780458 94.1938 -30.4273 -98.1181 25.516 1.76401 15.8579 -46.4645 -1.78786 -88.4266 -4.24305 -0.413092 7.93136 -84.7007 -17.649 80.5844 2.35467 -9.7242 -25.2154 46.3883 -17.8335 -103.101 -2.17991 -0.0766237 1.07929 1.12206 5.0391 -0.555138 14.7967 5.10049 0.545702 
-103.008 88.2944 -97.1297 -109.33 38.3861 -79.5544 -168.296 34.5314 90.8079 -83.7322 36.5098 3.7071 52.1148 -2.87421 5.29226 23.0832 1.38191 -9.99998 164.19 45.0808 88.9578 -70.7862 20.6718 6.32436 61.8624 -1.49571 -2.82166 17.0215 -3.22079 3.36089 -1.12865 10.8527 -89.5908 5.17503 -2.08588 0.841623 -6.49458 -2.04683 0.932636 -29.043 -2.24235 0.175531 -9.03031 -2.24235 0.175533 93.8258 -28.7095 -99.3182 19.1592 11.4443 16.538 -44.437 4.84914 -95.0924 -8.74219 -1.36142 13.5403 -83.4027 -10.8706 81.5904 -1.0833 -15.5515 -34.4 45.3436 -11.7282 -99.0853 -1.09025 -0.0302586 0.931862 2.92877 5.43109 -0.914831 14.2343 5.81519 2.42607 
-106.738 87.6859 -101.177 -107.312 36.1754 -80.795 -164.879 39.8875 91.9517 -88.1507 28.406 1.54177 52.316 -3.08302 5.86742 25.1715 1.31421 -7.72416 163.484 44.1619 86.1894 -57.2772 14.8333 9.74233 58.4843 -0.296387 -0.966418 18.4314 -3.73345 5.3797 -1.2604 11.1453 -89.818 4.58644 -2.44405 0.38441 -7.08229 -2.4248 0.49166 -29.6357 -2.44656 -0.368362 -9.62307 -2.44655 -0.368362 94.8948 -26.5587 -97.6775 18.8249 16.9431 8.67562 -47.1756 6.01243 -102.225 -15.1709 -2.93807 17.6082 -83.5768 -8.2351 80.1921 -5.5573 -17.7908 -43.7216 48.8928 -4.2349 -89.7775 -1.7421 -0.0575979 1.10732 2.23175 5.44904 -0.502888 15.2927 5.88077 3.01829 
-110.314 86.4959 -105.623 -105.84 35.3475 -82.0009 -160.175 45.6888 92.9268 -89.8121 24.3958 -0.996638 58.0882 -0.172107 6.39455 22.4762 0.457783 -7.67016 164.237 42.8742 84.3006 -48.3658 13.9002 10.6435 58.8346 -0.485888 -0.956688 18.8509 -3.62338 5.33493 -1.27671 11.3252 -89.864 4.22543 -2.49583 0.283 -7.44319 -2.48093 0.392636 -29.9972 -2.46543 -0.480661 -9.98452 -2.46541 -0.480654 96.0583 -27.4168 -94.9957 23.9269 13.783 -8.64734 -49.1183 7.00504 -100.54 -16.5525 -3.71789 21.0025 -84.3466 -9.68071 78.6263 -9.59006 -15.818 -52.8735 54.8589 4.64109 -79.3654 -2.54395 -0.0939021 0.405495 2.59446 5.22489 -0.436427 13.8651 5.52639 2.4081 
-114.071 84.2574 -110.236 -105.806 33.6305 -82.9884 -156.208 50.4085 92.8101 -87.9558 31.4319 -3.16826 59.242 0.499178 5.60841 21.9512 0.336703 -7.78781 164.856 42.3251 81.1757 -49.21 17.6317 10.5847 58.7553 -0.1635 -1.04373 18.6445 -3.23003 4.14193 -1.29316 11.6428 -89.7127 3.59334 -2.46883 0.559679 -8.07543 -2.44181 0.667853 -30.6295 -2.52284 -0.208665 -10.6168 -2.52284 -0.208666 95.6786 -29.5497 -95.3217 27.3421 7.55223 -26.4473 -55.0862 5.70976 -92.7173 -12.8787 -2.62992 19.0051 -85.5903 -10.9969 75.8617 -11.8177 -13.2169 -60.1446 57.7884 18.1901 -71.3957 -1.96699 -0.0717251 0.733632 3.50212 4.35943 -3.26652 13.9091 5.38848 3.90381 
-117.73 81.2871 -114.816 -106.054 32.741 -84.0349 -151.194 54.3501 91.398 -82.3979 38.1119 -6.51093 57.0454 -0.935705 3.82465 22.9872 0.813858 -8.20372 162.958 47.7671 79.1234 -61.4606 12.8194 11.0683 61.0609 -0.0433187 -3.89586 5.56102 -4.28663 0.992195 -1.15427 11.8475 -89.57 3.18439 -2.13528 0.824962 -8.48513 -2.09689 0.918161 -31.0342 -2.28445 0.144764 -11.0216 -2.28445 0.144766 95.2324 -29.8861 -96.15 28.1831 0.835385 -42.9298 -61.7387 -7.16614 -84.2979 -13.105 -2.6799 18.9159 -87.0084 -13.5577 73.3825 -9.84845 -8.819 -65.4597 53.799 28.4807 -60.1607 0.699339 0.033209 0.239712 3.67826 3.32553 -4.02993 14.5253 4.50432 3.74046 
-121.417 76.8282 -119.142 -107.723 33.3256 -84.0893 -147.253 57.9628 90.9666 -78.4398 39.1359 -10.1297 60.2915 0.551275 2.94028 18.441 -0.609229 -8.19268 157.52 55.1223 80.9955 -77.763 9.28818 7.6514 65.0777 -1.98333 -5.50696 13.4397 -3.81768 3.0826 -0.895652 12.1526 -89.4445 2.57393 -1.57157 1.06124 -9.09657 -1.52334 1.12938 -31.6382 -1.81781 0.539767 -11.6255 -1.81785 0.539751 94.4741 -29.3499 -97.8197 25.9632 -3.50444 -58.9255 -60.7638 -26.0084 -68.387 -18.0713 -3.20026 15.5557 -88.5631 -17.249 71.4067 -7.13887 -5.20447 -67.7526 49.3812 33.6631 -53.0658 0.513187 0.0657383 1.86096 5.15459 2.43058 -4.23392 13.7838 3.65659 3.49211 
-124.562 73.233 -122.946 -110.512 35.2087 -79.5075 -148.814 61.5795 96.738 -74.7391 38.1421 -10.9686 60.3166 0.399383 0.792576 21.2827 -1.04986 -4.78767 150.863 57.095 87.2288 -88.7407 6.22942 5.33086 66.6782 -2.69655 -6.76443 12.0897 -4.31294 3.57594 -0.333328 12.7513 -89.7645 1.37187 -0.57561 0.441477 -10.299 -0.555639 0.466378 -32.835 -0.681693 0.248064 -12.8223 -0.681696 0.248055 93.6053 -26.4392 -100.444 16.6702 -4.45563 -73.2241 -36.7709 -38.0227 -37.1159 -22.7957 -2.94722 9.80011 -90.6198 -21.6823 68.9318 -2.31206 -4.05773 -71.1198 42.4113 38.9237 -43.4291 -0.509879 -0.0145032 0.191732 9.50155 1.91689 -3.61054 12.3348 3.07957 3.15052 
